<?xml version="1.0" encoding="UTF-8"?>
<svg width="56px" height="52px" viewBox="0 0 56 52" version="1.1" xmlns="http://www.w3.org/2000/svg" xmlns:xlink="http://www.w3.org/1999/xlink">
    <title>bg-customer</title>
    <g id="Page-1" stroke="none" stroke-width="1" fill="none" fill-rule="evenodd">
        <g id="bg-customer" fill="#F3B81D" fill-rule="nonzero">
            <circle id="Ellipse_68" cx="27.653" cy="26" r="26"></circle>
            <path d="M48.3577535,16.0643254 C51.9477535,16.0643254 53.3057535,11.8883254 53.3057535,9.12632544 C53.3057535,6.36432544 50.3957535,4.12632544 46.8057535,4.12632544 C43.2157535,4.12632544 40.3057535,6.36532544 40.3057535,9.12632544 C40.3057535,11.8873254 44.7677535,16.0633254 48.3577535,16.0643254 Z" id="ear_" transform="translate(46.805754, 10.095325) rotate(-134.030000) translate(-46.805754, -10.095325) "></path>
            <path d="M10.3606649,4.13083505 C13.9506649,4.13083505 15.3086649,8.30683505 15.3086649,11.067835 C15.3086649,13.828835 12.3986649,16.067835 8.80866492,16.067835 C5.21866492,16.067835 2.30866492,13.828835 2.30866492,11.067835 C2.30866492,8.30683505 6.77066492,4.13083505 10.3606649,4.13083505 Z" id="ear_2" transform="translate(8.808665, 10.099335) rotate(-45.970000) translate(-8.808665, -10.099335) "></path>
        </g>
    </g>
</svg>